<svg xmlns="http://www.w3.org/2000/svg" xmlns:xlink="http://www.w3.org/1999/xlink" xmlns:lucid="lucid" width="1020" height="504.5"><g transform="translate(-120 -120)" lucid:page-tab-id="0_0"><path d="M0 0h1360v1760H0z" fill="#fff"/><path d="M140 152c0-6.63 5.37-12 12-12h171.2c6.63 0 12 5.37 12 12v436c0 6.63-5.37 12-12 12H152c-6.63 0-12-5.37-12-12z" stroke="#000" fill="#c7e8ac"/><path d="M140 183h195.2" stroke="#000" fill="none"/><use xlink:href="#a" transform="matrix(1,0,0,1,148,140) translate(49.35185185185185 25.944444444444443)"/><path d="M516 152c0-6.63 5.37-12 12-12h187.2c6.63 0 12 5.37 12 12v436c0 6.63-5.37 12-12 12H528c-6.63 0-12-5.37-12-12z" stroke="#000" fill="#c1e4f7"/><path d="M516 183h211.2" stroke="#000" fill="none"/><use xlink:href="#b" transform="matrix(1,0,0,1,524,140) translate(34.574074074074076 25.944444444444443)"/><use xlink:href="#c" transform="matrix(1,0,0,1,524,140) translate(78.89506172839506 25.944444444444443)"/><path d="M166 227c0-6.63 5.37-12 12-12h120c6.63 0 12 5.37 12 12v337c0 6.63-5.37 12-12 12H178c-6.63 0-12-5.37-12-12z" stroke="#000" fill="#ffeca9"/><use xlink:href="#d" transform="matrix(1,0,0,1,171,219.9999999999999) translate(20.444444444444443 179.5)"/><use xlink:href="#e" transform="matrix(1,0,0,1,171,219.9999999999999) translate(67 179.5)"/><path d="M999 171c0-6.63 5.37-12 12-12h97c6.63 0 12 5.37 12 12v76c0 6.63-5.37 12-12 12h-97c-6.63 0-12-5.37-12-12z" stroke="#000" fill="#f9d2de"/><use xlink:href="#f" transform="matrix(1,0,0,1,1004,163.9999999999999) translate(32.25 37)"/><use xlink:href="#g" transform="matrix(1,0,0,1,1004,163.9999999999999) translate(28.333333333333336 61)"/><path d="M544.5 335c0-6.63 5.37-12 12-12h132.8c6.63 0 12 5.37 12 12v116c0 6.63-5.37 12-12 12H556.5c-6.63 0-12-5.37-12-12z" stroke="#000" fill="#99d5ca"/><use xlink:href="#h" transform="matrix(1,0,0,1,549.5,327.9999999999999) translate(19.388888888888886 69)"/><use xlink:href="#e" transform="matrix(1,0,0,1,549.5,327.9999999999999) translate(81.05555555555556 69)"/><path d="M999 340c0-6.63 5.37-12 12-12h97c6.63 0 12 5.37 12 12v76c0 6.63-5.37 12-12 12h-97c-6.63 0-12-5.37-12-12z" stroke="#000" fill="#c7e8ac"/><use xlink:href="#i" transform="matrix(1,0,0,1,1004,332.9999999999999) translate(35.55555555555556 49)"/><path d="M997 504c0-6.63 5.37-12 12-12h99c6.63 0 12 5.37 12 12v76c0 6.63-5.37 12-12 12h-99c-6.63 0-12-5.37-12-12z" stroke="#000" fill="#d1bcd2"/><use xlink:href="#j" transform="matrix(1,0,0,1,1002,496.9999999999999) translate(25.944444444444443 49)"/><path d="M818 319h97v36.5h-97z" stroke="#000" stroke-opacity="0" stroke-width="2" fill="#fff" fill-opacity="0"/><use xlink:href="#k" transform="matrix(1,0,0,1,823,323.9999999999999) translate(19.35185185185185 17.055555555555557)"/><path d="M765.83 405H966v51H765.83z" stroke="#000" stroke-opacity="0" stroke-width="2" fill="#fff" fill-opacity="0"/><use xlink:href="#l" transform="matrix(1,0,0,1,770.8333333333335,409.9999999999999) translate(3.154320987654316 14.222222222222223)"/><use xlink:href="#m" transform="matrix(1,0,0,1,770.8333333333335,409.9999999999999) translate(55.69753086419753 14.222222222222223)"/><use xlink:href="#n" transform="matrix(1,0,0,1,770.8333333333335,409.9999999999999) translate(174.0679012345679 14.222222222222223)"/><use xlink:href="#o" transform="matrix(1,0,0,1,770.8333333333335,409.9999999999999) translate(80.24074074074073 35.55555555555556)"/><path d="M728.2 513.36l251.92.05" fill="none"/><path d="M728.2 513.36h4.94m4.94 0h9.88m4.94 0h9.88m4.94 0h9.88m4.93 0h9.88m4.95.02h9.88m4.94 0h9.88m4.94 0h9.87m4.94 0h9.9m4.93 0h9.88m4.95 0h9.88m4.94 0l9.87.02m4.94 0h9.88m4.94 0h9.88m4.94 0h9.88m4.94 0h9.88m4.94 0h9.88m4.94 0h4.94" stroke="#000" fill="none"/><path d="M728.2 512.86v1h-.5v-1zM994.88 513.42l-14.26 4.63v-9.27z"/><path d="M996.5 513.42l-16.4 5.32.02-10.65zm-15.38 3.94l12.14-3.94-12.14-3.95z"/><path d="M767 482.25h183v35.25H767z" stroke="#000" stroke-opacity="0" stroke-width="2" fill="#fff" fill-opacity="0"/><use xlink:href="#p" transform="matrix(1,0,0,1,772,487.2499999999999) translate(15.462962962962948 16.555555555555557)"/><use xlink:href="#q" transform="matrix(1,0,0,1,772,487.2499999999999) translate(92.45061728395062 16.555555555555557)"/><use xlink:href="#r" transform="matrix(1,0,0,1,772,487.2499999999999) translate(109.24074074074075 16.555555555555557)"/><path d="M728.2 350.66l253.92.08" fill="none"/><path d="M728.2 350.66h4.98m4.98 0h9.95m5 0h9.95m4.98.02H778m4.97 0h9.95m4.98 0h9.96m4.98 0h9.96m4.97 0l9.96.02m4.98 0h9.97m4.98 0h9.95m4.98 0h9.96m4.98 0h9.96m4.98.02h9.95m5 0h9.95m4.98 0h9.96m4.96 0h9.96m4.98 0l9.96.02m4.98 0h4.98" stroke="#000" fill="none"/><path d="M728.2 350.16v1h-.5v-1zM996.88 350.74l-14.27 4.63.02-9.27z"/><path d="M998.5 350.74l-16.4 5.32.02-10.64zm-15.4 3.95l12.16-3.96-12.14-3.95z"/><path d="M998 402.6l-281.3.06" fill="none"/><path d="M998 402.6h-4.94m-4.93 0h-9.87m-4.94 0h-9.87m-4.93 0h-9.87m-4.94 0h-9.86m-4.93 0l-9.86.02m-4.94 0h-9.87m-4.93 0h-9.87m-4.94 0h-9.88m-4.93 0h-9.88m-4.94 0H845m-4.92 0l-9.87.02m-4.93 0h-9.87m-4.93 0h-9.87m-4.94 0h-9.87m-4.94 0H771m-4.95 0h-9.87m-4.93 0l-9.87.02m-4.94 0h-9.87m-4.93 0h-4.94" stroke="#000" fill="none"/><path d="M998.5 403.1h-.5v-1h.5z"/><path d="M701.94 402.67l14.26-4.64v9.27z" stroke="#000"/><path d="M996 567.92l-251.92-.06" fill="none"/><path d="M996 567.92h-4.94m-4.94 0h-9.88m-4.94 0h-9.88m-4.94 0h-9.88m-4.93 0h-9.88m-4.95 0l-9.88-.02m-4.94 0h-9.88m-4.94 0h-9.87m-4.94 0h-9.9m-4.93 0h-9.88m-4.95 0h-9.88m-4.94-.02h-9.87m-4.94 0h-9.88m-4.94 0h-9.88m-4.94 0h-9.88m-4.94 0h-9.88m-4.94 0l-9.88-.02m-4.94 0h-4.94" stroke="#000" fill="none"/><path d="M996.5 567.42v1h-.5v-1zM743.58 572.5l-14.26-4.64 14.27-4.63z"/><path d="M744.08 573.18l-16.38-5.32 16.4-5.32zm-13.14-5.32l12.14 3.95v-7.9z"/><path d="M773.42 568h187.16v36.5H773.42z" stroke="#000" stroke-opacity="0" stroke-width="2" fill="#fff" fill-opacity="0"/><use xlink:href="#s" transform="matrix(1,0,0,1,778.4166666666667,572.9999999999999) translate(28.82716049382715 17.055555555555557)"/><use xlink:href="#t" transform="matrix(1,0,0,1,778.4166666666667,572.9999999999999) translate(100.87654320987654 17.055555555555557)"/><path d="M998 209l-253.92-.03" fill="none"/><path d="M998 209h-4.98m-4.98 0h-9.95m-5 0h-9.95m-4.98 0h-9.96m-4.97 0h-9.95m-4.98 0h-9.96m-4.98 0h-9.96m-4.97 0h-9.96m-4.98 0h-9.97m-4.98 0l-9.95-.02m-4.98 0h-9.96m-4.98 0h-9.96m-4.98 0h-9.95m-5 0h-9.95m-4.98 0h-9.96m-4.96 0h-9.96m-4.98 0h-9.96m-4.98 0h-4.98" stroke="#000" fill="none"/><path d="M998.5 208.5v1h-.5v-1zM743.58 213.6l-14.26-4.63 14.26-4.63z"/><path d="M744.08 214.3l-16.38-5.33 16.38-5.32zm-13.14-5.33l12.14 3.95v-7.9z"/><path d="M379 362h97v33.25h-97z" stroke="#000" stroke-opacity="0" stroke-width="2" fill="#fff" fill-opacity="0"/><use xlink:href="#u" transform="matrix(1,0,0,1,384,367) translate(19.37654320987654 15.555555555555555)"/><path d="M311 513.68h188.12" fill="none"/><path d="M311 513.68h4.82m4.83 0h9.64m4.82 0h9.64m4.83 0h9.63m4.83 0h9.65m4.83 0h9.65m4.82 0h9.65m4.82 0h9.65m4.82 0h9.65m4.8 0h9.66m4.82 0h9.65m4.82 0H475m4.82 0h9.65m4.82 0h4.82" stroke="#000" fill="none"/><path d="M311 514.18h-.5v-1h.5zM513.88 513.68l-14.26 4.64v-9.27z"/><path d="M515.5 513.68L499.12 519v-10.64zm-15.38 3.95l12.14-3.95-12.14-3.95z"/><path d="M369 481h97v33.25h-97z" stroke="#000" stroke-opacity="0" stroke-width="2" fill="#fff" fill-opacity="0"/><g><use xlink:href="#v" transform="matrix(1,0,0,1,374,485.9999999999999) translate(16.339506172839506 15.555555555555555)"/></g><path d="M543.5 393H326.88" fill="none"/><path d="M543.5 393h-5.16m-5.16 0h-10.3m-5.17 0h-10.3m-5.16 0h-10.32m-5.15 0h-10.32m-5.16 0h-10.32m-5.16 0h-10.3m-5.17 0h-10.32m-5.15 0h-10.32m-5.16 0h-10.3m-5.17 0h-10.3m-5.17 0h-10.32m-5.15 0h-10.33m-5.16 0h-10.3m-5.16 0h-5.16" stroke="#000" fill="none"/><path d="M544 393.5h-.5v-1h.5zM326.38 397.64L312.12 393l14.26-4.64z"/><path d="M326.88 398.32L310.5 393l16.38-5.32zM313.74 393l12.14 3.95v-7.9z"/><defs><path d="M160-131c35 5 61 23 61 61C221 17 115-2 30 0v-248c76 3 177-17 177 60 0 33-19 50-47 57zm-97-11c50-1 110 9 110-42 0-47-63-36-110-37v79zm0 115c55-2 124 14 124-45 0-56-70-42-124-44v89" id="w"/><path d="M114-163C36-179 61-72 57 0H25l-1-190h30c1 12-1 29 2 39 6-27 23-49 58-41v29" id="x"/><path d="M100-194c62-1 85 37 85 99 1 63-27 99-86 99S16-35 15-95c0-66 28-99 85-99zM99-20c44 1 53-31 53-75 0-43-8-75-51-75s-53 32-53 75 10 74 51 75" id="y"/><path d="M206 0h-36l-40-164L89 0H53L-1-190h32L70-26l43-164h34l41 164 42-164h31" id="z"/><path d="M135-143c-3-34-86-38-87 0 15 53 115 12 119 90S17 21 10-45l28-5c4 36 97 45 98 0-10-56-113-15-118-90-4-57 82-63 122-42 12 7 21 19 24 35" id="A"/><path d="M100-194c63 0 86 42 84 106H49c0 40 14 67 53 68 26 1 43-12 49-29l28 8c-11 28-37 45-77 45C44 4 14-33 15-96c1-61 26-98 85-98zm52 81c6-60-76-77-97-28-3 7-6 17-6 28h103" id="B"/><g id="a"><use transform="matrix(0.06172839506172839,0,0,0.06172839506172839,0,0)" xlink:href="#w"/><use transform="matrix(0.06172839506172839,0,0,0.06172839506172839,14.814814814814813,0)" xlink:href="#x"/><use transform="matrix(0.06172839506172839,0,0,0.06172839506172839,22.160493827160494,0)" xlink:href="#y"/><use transform="matrix(0.06172839506172839,0,0,0.06172839506172839,34.50617283950617,0)" xlink:href="#z"/><use transform="matrix(0.06172839506172839,0,0,0.06172839506172839,50.49382716049382,0)" xlink:href="#A"/><use transform="matrix(0.06172839506172839,0,0,0.06172839506172839,61.60493827160494,0)" xlink:href="#B"/><use transform="matrix(0.06172839506172839,0,0,0.06172839506172839,73.95061728395062,0)" xlink:href="#x"/></g><path d="M30 0v-248h187v28H63v79h144v27H63v87h162V0H30" id="C"/><path d="M24 0v-261h32V0H24" id="D"/><path d="M210-169c-67 3-38 105-44 169h-31v-121c0-29-5-50-35-48C34-165 62-65 56 0H25l-1-190h30c1 10-1 24 2 32 10-44 99-50 107 0 11-21 27-35 58-36 85-2 47 119 55 194h-31v-121c0-29-5-49-35-48" id="E"/><g id="b"><use transform="matrix(0.06172839506172839,0,0,0.06172839506172839,0,0)" xlink:href="#C"/><use transform="matrix(0.06172839506172839,0,0,0.06172839506172839,14.814814814814813,0)" xlink:href="#D"/><use transform="matrix(0.06172839506172839,0,0,0.06172839506172839,19.691358024691354,0)" xlink:href="#E"/></g><path d="M233-177c-1 41-23 64-60 70L243 0h-38l-65-103H63V0H30v-248c88 3 205-21 203 71zM63-129c60-2 137 13 137-47 0-61-80-42-137-45v92" id="F"/><path d="M84 4C-5 8 30-112 23-190h32v120c0 31 7 50 39 49 72-2 45-101 50-169h31l1 190h-30c-1-10 1-25-2-33-11 22-28 36-60 37" id="G"/><path d="M117-194c89-4 53 116 60 194h-32v-121c0-31-8-49-39-48C34-167 62-67 57 0H25l-1-190h30c1 10-1 24 2 32 11-22 29-35 61-36" id="H"/><path d="M59-47c-2 24 18 29 38 22v24C64 9 27 4 27-40v-127H5v-23h24l9-43h21v43h35v23H59v120" id="I"/><path d="M24-231v-30h32v30H24zM24 0v-190h32V0H24" id="J"/><g id="c"><use transform="matrix(0.06172839506172839,0,0,0.06172839506172839,0,0)" xlink:href="#F"/><use transform="matrix(0.06172839506172839,0,0,0.06172839506172839,15.987654320987653,0)" xlink:href="#G"/><use transform="matrix(0.06172839506172839,0,0,0.06172839506172839,28.333333333333332,0)" xlink:href="#H"/><use transform="matrix(0.06172839506172839,0,0,0.06172839506172839,40.67901234567901,0)" xlink:href="#I"/><use transform="matrix(0.06172839506172839,0,0,0.06172839506172839,46.851851851851855,0)" xlink:href="#J"/><use transform="matrix(0.06172839506172839,0,0,0.06172839506172839,51.7283950617284,0)" xlink:href="#E"/><use transform="matrix(0.06172839506172839,0,0,0.06172839506172839,70.18518518518519,0)" xlink:href="#B"/></g><path d="M141-36C126-15 110 5 73 4 37 3 15-17 15-53c-1-64 63-63 125-63 3-35-9-54-41-54-24 1-41 7-42 31l-33-3c5-37 33-52 76-52 45 0 72 20 72 64v82c-1 20 7 32 28 27v20c-31 9-61-2-59-35zM48-53c0 20 12 33 32 33 41-3 63-29 60-74-43 2-92-5-92 41" id="K"/><g id="d"><use transform="matrix(0.05555555555555555,0,0,0.05555555555555555,0,0)" xlink:href="#F"/><use transform="matrix(0.05555555555555555,0,0,0.05555555555555555,14.388888888888888,0)" xlink:href="#B"/><use transform="matrix(0.05555555555555555,0,0,0.05555555555555555,25.5,0)" xlink:href="#K"/><use transform="matrix(0.05555555555555555,0,0,0.05555555555555555,36.611111111111114,0)" xlink:href="#D"/></g><path d="M30-248c118-7 216 8 213 122C240-48 200 0 122 0H30v-248zM63-27c89 8 146-16 146-99s-60-101-146-95v194" id="L"/><path d="M140-251c81 0 123 46 123 126C263-46 219 4 140 4 59 4 17-45 17-125s42-126 123-126zm0 227c63 0 89-41 89-101s-29-99-89-99c-61 0-89 39-89 99S79-25 140-24" id="M"/><path d="M240 0l2-218c-23 76-54 145-80 218h-23L58-218 59 0H30v-248h44l77 211c21-75 51-140 76-211h43V0h-30" id="N"/><g id="e"><use transform="matrix(0.05555555555555555,0,0,0.05555555555555555,0,0)" xlink:href="#L"/><use transform="matrix(0.05555555555555555,0,0,0.05555555555555555,14.388888888888888,0)" xlink:href="#M"/><use transform="matrix(0.05555555555555555,0,0,0.05555555555555555,29.944444444444443,0)" xlink:href="#N"/></g><path d="M33 0v-248h34V0H33" id="O"/><g id="f"><use transform="matrix(0.05555555555555555,0,0,0.05555555555555555,0,0)" xlink:href="#O"/><use transform="matrix(0.05555555555555555,0,0,0.05555555555555555,5.555555555555555,0)" xlink:href="#H"/><use transform="matrix(0.05555555555555555,0,0,0.05555555555555555,16.666666666666664,0)" xlink:href="#J"/><use transform="matrix(0.05555555555555555,0,0,0.05555555555555555,21.055555555555554,0)" xlink:href="#I"/><use transform="matrix(0.05555555555555555,0,0,0.05555555555555555,26.611111111111107,0)" xlink:href="#J"/><use transform="matrix(0.05555555555555555,0,0,0.05555555555555555,31,0)" xlink:href="#K"/><use transform="matrix(0.05555555555555555,0,0,0.05555555555555555,42.11111111111111,0)" xlink:href="#D"/></g><path d="M85-194c31 0 48 13 60 33l-1-100h32l1 261h-30c-2-10 0-23-3-31C134-8 116 4 85 4 32 4 16-35 15-94c0-66 23-100 70-100zm9 24c-40 0-46 34-46 75 0 40 6 74 45 74 42 0 51-32 51-76 0-42-9-74-50-73" id="P"/><g id="g"><use transform="matrix(0.05555555555555555,0,0,0.05555555555555555,0,0)" xlink:href="#N"/><use transform="matrix(0.05555555555555555,0,0,0.05555555555555555,16.61111111111111,0)" xlink:href="#y"/><use transform="matrix(0.05555555555555555,0,0,0.05555555555555555,27.72222222222222,0)" xlink:href="#P"/><use transform="matrix(0.05555555555555555,0,0,0.05555555555555555,38.83333333333333,0)" xlink:href="#B"/><use transform="matrix(0.05555555555555555,0,0,0.05555555555555555,49.94444444444444,0)" xlink:href="#D"/></g><path d="M137 0h-34L2-248h35l83 218 83-218h36" id="Q"/><g id="h"><use transform="matrix(0.05555555555555555,0,0,0.05555555555555555,0,0)" xlink:href="#Q"/><use transform="matrix(0.05555555555555555,0,0,0.05555555555555555,12.944444444444443,0)" xlink:href="#J"/><use transform="matrix(0.05555555555555555,0,0,0.05555555555555555,17.333333333333332,0)" xlink:href="#x"/><use transform="matrix(0.05555555555555555,0,0,0.05555555555555555,23.944444444444443,0)" xlink:href="#I"/><use transform="matrix(0.05555555555555555,0,0,0.05555555555555555,29.5,0)" xlink:href="#G"/><use transform="matrix(0.05555555555555555,0,0,0.05555555555555555,40.611111111111114,0)" xlink:href="#K"/><use transform="matrix(0.05555555555555555,0,0,0.05555555555555555,51.72222222222223,0)" xlink:href="#D"/></g><path d="M108 0H70L1-190h34L89-25l56-165h34" id="R"/><g id="i"><use transform="matrix(0.05555555555555555,0,0,0.05555555555555555,0,0)" xlink:href="#R"/><use transform="matrix(0.05555555555555555,0,0,0.05555555555555555,10,0)" xlink:href="#J"/><use transform="matrix(0.05555555555555555,0,0,0.05555555555555555,14.388888888888888,0)" xlink:href="#B"/><use transform="matrix(0.05555555555555555,0,0,0.05555555555555555,25.5,0)" xlink:href="#z"/></g><path d="M115-194c55 1 70 41 70 98S169 2 115 4C84 4 66-9 55-30l1 105H24l-1-265h31l2 30c10-21 28-34 59-34zm-8 174c40 0 45-34 45-75s-6-73-45-74c-42 0-51 32-51 76 0 43 10 73 51 73" id="S"/><g id="j"><use transform="matrix(0.05555555555555555,0,0,0.05555555555555555,0,0)" xlink:href="#G"/><use transform="matrix(0.05555555555555555,0,0,0.05555555555555555,11.11111111111111,0)" xlink:href="#S"/><use transform="matrix(0.05555555555555555,0,0,0.05555555555555555,22.22222222222222,0)" xlink:href="#P"/><use transform="matrix(0.05555555555555555,0,0,0.05555555555555555,33.33333333333333,0)" xlink:href="#K"/><use transform="matrix(0.05555555555555555,0,0,0.05555555555555555,44.44444444444444,0)" xlink:href="#I"/><use transform="matrix(0.05555555555555555,0,0,0.05555555555555555,50,0)" xlink:href="#B"/></g><g id="k"><use transform="matrix(0.04938271604938272,0,0,0.04938271604938272,0,0)" xlink:href="#N"/><use transform="matrix(0.04938271604938272,0,0,0.04938271604938272,14.765432098765434,0)" xlink:href="#y"/><use transform="matrix(0.04938271604938272,0,0,0.04938271604938272,24.641975308641978,0)" xlink:href="#P"/><use transform="matrix(0.04938271604938272,0,0,0.04938271604938272,34.51851851851852,0)" xlink:href="#B"/><use transform="matrix(0.04938271604938272,0,0,0.04938271604938272,44.39506172839506,0)" xlink:href="#D"/></g><path d="M197 0v-115H63V0H30v-248h33v105h134v-105h34V0h-34" id="T"/><path d="M127-220V0H93v-220H8v-28h204v28h-85" id="U"/><path d="M30 0v-248h33v221h125V0H30" id="V"/><g id="l"><use transform="matrix(0.04938271604938272,0,0,0.04938271604938272,0,0)" xlink:href="#T"/><use transform="matrix(0.04938271604938272,0,0,0.04938271604938272,12.790123456790125,0)" xlink:href="#U"/><use transform="matrix(0.04938271604938272,0,0,0.04938271604938272,23.60493827160494,0)" xlink:href="#N"/><use transform="matrix(0.04938271604938272,0,0,0.04938271604938272,38.370370370370374,0)" xlink:href="#V"/></g><g id="m"><use transform="matrix(0.04938271604938272,0,0,0.04938271604938272,0,0)" xlink:href="#x"/><use transform="matrix(0.04938271604938272,0,0,0.04938271604938272,5.8765432098765435,0)" xlink:href="#B"/><use transform="matrix(0.04938271604938272,0,0,0.04938271604938272,15.753086419753087,0)" xlink:href="#S"/><use transform="matrix(0.04938271604938272,0,0,0.04938271604938272,25.629629629629633,0)" xlink:href="#x"/><use transform="matrix(0.04938271604938272,0,0,0.04938271604938272,31.506172839506174,0)" xlink:href="#B"/><use transform="matrix(0.04938271604938272,0,0,0.04938271604938272,41.38271604938272,0)" xlink:href="#A"/><use transform="matrix(0.04938271604938272,0,0,0.04938271604938272,50.27160493827161,0)" xlink:href="#B"/><use transform="matrix(0.04938271604938272,0,0,0.04938271604938272,60.14814814814815,0)" xlink:href="#H"/><use transform="matrix(0.04938271604938272,0,0,0.04938271604938272,70.0246913580247,0)" xlink:href="#I"/><use transform="matrix(0.04938271604938272,0,0,0.04938271604938272,74.96296296296296,0)" xlink:href="#K"/><use transform="matrix(0.04938271604938272,0,0,0.04938271604938272,84.8395061728395,0)" xlink:href="#I"/><use transform="matrix(0.04938271604938272,0,0,0.04938271604938272,89.77777777777777,0)" xlink:href="#J"/><use transform="matrix(0.04938271604938272,0,0,0.04938271604938272,93.67901234567901,0)" xlink:href="#y"/><use transform="matrix(0.04938271604938272,0,0,0.04938271604938272,103.55555555555557,0)" xlink:href="#H"/></g><g id="n"><use transform="matrix(0.04938271604938272,0,0,0.04938271604938272,0,0)" xlink:href="#J"/><use transform="matrix(0.04938271604938272,0,0,0.04938271604938272,3.901234567901235,0)" xlink:href="#H"/></g><g id="o"><use transform="matrix(0.04938271604938272,0,0,0.04938271604938272,0,0)" xlink:href="#C"/><use transform="matrix(0.04938271604938272,0,0,0.04938271604938272,11.851851851851853,0)" xlink:href="#D"/><use transform="matrix(0.04938271604938272,0,0,0.04938271604938272,15.753086419753087,0)" xlink:href="#E"/></g><path d="M177-190C167-65 218 103 67 71c-23-6-38-20-44-43l32-5c15 47 100 32 89-28v-30C133-14 115 1 83 1 29 1 15-40 15-95c0-56 16-97 71-98 29-1 48 16 59 35 1-10 0-23 2-32h30zM94-22c36 0 50-32 50-73 0-42-14-75-50-75-39 0-46 34-46 75s6 73 46 73" id="W"/><g id="p"><use transform="matrix(0.04938271604938272,0,0,0.04938271604938272,0,0)" xlink:href="#N"/><use transform="matrix(0.04938271604938272,0,0,0.04938271604938272,14.765432098765434,0)" xlink:href="#B"/><use transform="matrix(0.04938271604938272,0,0,0.04938271604938272,24.641975308641978,0)" xlink:href="#A"/><use transform="matrix(0.04938271604938272,0,0,0.04938271604938272,33.53086419753087,0)" xlink:href="#A"/><use transform="matrix(0.04938271604938272,0,0,0.04938271604938272,42.41975308641976,0)" xlink:href="#K"/><use transform="matrix(0.04938271604938272,0,0,0.04938271604938272,52.2962962962963,0)" xlink:href="#W"/><use transform="matrix(0.04938271604938272,0,0,0.04938271604938272,62.17283950617284,0)" xlink:href="#B"/></g><path d="M234-2c-28 10-62 0-77-18C117 19 8 12 13-65c3-43 29-61 60-76-25-40-17-114 47-108 35 3 59 15 59 50 0 44-40 53-71 69 14 26 32 50 51 72 14-21 24-43 30-72l26 8c-9 33-21 57-38 82 13 13 33 22 57 15v23zM97-151c25-10 52-18 56-48-1-18-13-29-33-29-42 0-39 50-23 77zM42-66c-3 51 71 58 98 28-20-24-41-51-56-80-23 10-40 24-42 52" id="X"/><use transform="matrix(0.04938271604938272,0,0,0.04938271604938272,0,0)" xlink:href="#X" id="q"/><g id="r"><use transform="matrix(0.04938271604938272,0,0,0.04938271604938272,0,0)" xlink:href="#N"/><use transform="matrix(0.04938271604938272,0,0,0.04938271604938272,14.765432098765434,0)" xlink:href="#y"/><use transform="matrix(0.04938271604938272,0,0,0.04938271604938272,24.641975308641978,0)" xlink:href="#P"/><use transform="matrix(0.04938271604938272,0,0,0.04938271604938272,34.51851851851852,0)" xlink:href="#B"/><use transform="matrix(0.04938271604938272,0,0,0.04938271604938272,44.39506172839506,0)" xlink:href="#D"/></g><path d="M232-93c-1 65-40 97-104 97C67 4 28-28 28-90v-158h33c8 89-33 224 67 224 102 0 64-133 71-224h33v155" id="Y"/><g id="s"><use transform="matrix(0.04938271604938272,0,0,0.04938271604938272,0,0)" xlink:href="#Y"/><use transform="matrix(0.04938271604938272,0,0,0.04938271604938272,12.790123456790125,0)" xlink:href="#S"/><use transform="matrix(0.04938271604938272,0,0,0.04938271604938272,22.66666666666667,0)" xlink:href="#P"/><use transform="matrix(0.04938271604938272,0,0,0.04938271604938272,32.543209876543216,0)" xlink:href="#K"/><use transform="matrix(0.04938271604938272,0,0,0.04938271604938272,42.41975308641976,0)" xlink:href="#I"/><use transform="matrix(0.04938271604938272,0,0,0.04938271604938272,47.35802469135803,0)" xlink:href="#B"/><use transform="matrix(0.04938271604938272,0,0,0.04938271604938272,57.23456790123457,0)" xlink:href="#P"/></g><g id="t"><use transform="matrix(0.04938271604938272,0,0,0.04938271604938272,0,0)" xlink:href="#E"/><use transform="matrix(0.04938271604938272,0,0,0.04938271604938272,14.765432098765434,0)" xlink:href="#y"/><use transform="matrix(0.04938271604938272,0,0,0.04938271604938272,24.641975308641978,0)" xlink:href="#P"/><use transform="matrix(0.04938271604938272,0,0,0.04938271604938272,34.51851851851852,0)" xlink:href="#B"/><use transform="matrix(0.04938271604938272,0,0,0.04938271604938272,44.39506172839506,0)" xlink:href="#D"/></g><g id="u"><use transform="matrix(0.04938271604938272,0,0,0.04938271604938272,0,0)" xlink:href="#T"/><use transform="matrix(0.04938271604938272,0,0,0.04938271604938272,12.790123456790125,0)" xlink:href="#U"/><use transform="matrix(0.04938271604938272,0,0,0.04938271604938272,23.60493827160494,0)" xlink:href="#N"/><use transform="matrix(0.04938271604938272,0,0,0.04938271604938272,38.370370370370374,0)" xlink:href="#V"/></g><g id="v"><use transform="matrix(0.04938271604938272,0,0,0.04938271604938272,0,0)" xlink:href="#C"/><use transform="matrix(0.04938271604938272,0,0,0.04938271604938272,11.851851851851853,0)" xlink:href="#R"/><use transform="matrix(0.04938271604938272,0,0,0.04938271604938272,20.74074074074074,0)" xlink:href="#B"/><use transform="matrix(0.04938271604938272,0,0,0.04938271604938272,30.617283950617285,0)" xlink:href="#H"/><use transform="matrix(0.04938271604938272,0,0,0.04938271604938272,40.49382716049383,0)" xlink:href="#I"/><use transform="matrix(0.04938271604938272,0,0,0.04938271604938272,45.4320987654321,0)" xlink:href="#A"/></g></defs></g></svg>